HIERARCHY
ROOT Hips
{
 OFFSET 0.000000 0.000000 0.000000
 CHANNELS 6 Xposition Yposition Zposition Yrotation Xrotation Zrotation
 JOINT Chest
 {
  OFFSET 0.000000 9.588913 -0.003946
  CHANNELS 3 Yrotation Xrotation Zrotation
  JOINT Chest2
  {
   OFFSET 0.000000 9.541882 0.008053
   CHANNELS 3 Yrotation Xrotation Zrotation
   JOINT Chest3
   {
    OFFSET 0.000000 9.501360 0.000000
    CHANNELS 3 Yrotation Xrotation Zrotation
    JOINT Chest4
    {
     OFFSET 0.000000 9.491660 0.000000
     CHANNELS 3 Yrotation Xrotation Zrotation
     JOINT Neck
     {
      OFFSET 0.000000 14.331917 0.000000
      CHANNELS 3 Yrotation Xrotation Zrotation
      JOINT Head
      {
       OFFSET 0.000000 8.884799 0.017034
       CHANNELS 3 Yrotation Xrotation Zrotation
       End Site
       {
        OFFSET 0.000000 16.896195 0.008993
       }
      }
     }
     JOINT RightCollar
     {
      OFFSET -2.923010 9.499495 0.000000
      CHANNELS 3 Yrotation Xrotation Zrotation
      JOINT RightShoulder
      {
       OFFSET -13.795216 0.000000 0.000000
       CHANNELS 3 Yrotation Xrotation Zrotation
       JOINT RightElbow
       {
        OFFSET -30.272209 0.000000 0.000000
        CHANNELS 3 Yrotation Xrotation Zrotation
        JOINT RightWrist
        {
         OFFSET -24.478199 0.000000 0.000000
         CHANNELS 3 Yrotation Xrotation Zrotation
         End Site
         {
          OFFSET -18.090752 0.000000 0.000000
         }
        }
       }
      }
     }
     JOINT LeftCollar
     {
      OFFSET 2.923010 9.499495 0.000000
      CHANNELS 3 Yrotation Xrotation Zrotation
      JOINT LeftShoulder
      {
       OFFSET 13.795216 0.000000 0.000000
       CHANNELS 3 Yrotation Xrotation Zrotation
       JOINT LeftElbow
       {
        OFFSET 30.272209 0.000000 0.000000
        CHANNELS 3 Yrotation Xrotation Zrotation
        JOINT LeftWrist
        {
         OFFSET 24.478199 0.000000 0.000000
         CHANNELS 3 Yrotation Xrotation Zrotation
         End Site
         {
          OFFSET 18.090752 0.000000 0.000000
         }
        }
       }
      }
     }
    }
   }
  }
 }
 JOINT RightHip
 {
  OFFSET -7.826875 0.019532 0.001973
  CHANNELS 3 Yrotation Xrotation Zrotation
  JOINT RightKnee
  {
   OFFSET 0.000000 -40.546152 -0.001885
   CHANNELS 3 Yrotation Xrotation Zrotation
   JOINT RightAnkle
   {
    OFFSET 0.000000 -39.417092 -0.003189
    CHANNELS 3 Yrotation Xrotation Zrotation
    JOINT RightToe
    {
     OFFSET 0.000000 -7.579396 17.243563
     CHANNELS 3 Yrotation Xrotation Zrotation
     End Site
     {
      OFFSET 0.000000 -1.500329 6.694466
     }
    }
   }
  }
 }
 JOINT LeftHip
 {
  OFFSET 7.826875 0.019532 0.001973
  CHANNELS 3 Yrotation Xrotation Zrotation
  JOINT LeftKnee
  {
   OFFSET 0.000000 -40.546152 -0.001885
   CHANNELS 3 Yrotation Xrotation Zrotation
   JOINT LeftAnkle
   {
    OFFSET 0.000000 -39.417092 -0.003189
    CHANNELS 3 Yrotation Xrotation Zrotation
    JOINT LeftToe
    {
     OFFSET 0.000000 -7.579396 17.243563
     CHANNELS 3 Yrotation Xrotation Zrotation
     End Site
     {
      OFFSET 0.000000 -1.500329 6.694466
     }
    }
   }
  }
 }
}
MOTION
Frames: 8
Frame Time: 0.008333
6.163492 89.146765 -18.920116 132.135265 -5.315842 0.517221 -5.128283 2.717870 0.865957 -2.905981 1.540779 0.425082 -3.631013 1.929184 0.519142 -2.905981 1.540779 0.425082 1.157179 26.679364 -2.306992 1.793286 3.531764 -2.791212 15.632028 -1.981344 -1.470992 -0.596905 -3.077145 89.087605 4.404220 7.179984 0.352390 -1.775354 -1.769567 -1.345271 12.700148 -0.485197 -1.018966 -6.649712 -5.472220 -90.544955 2.728946 12.264490 1.870334 -1.130360 -0.447459 0.331692 -5.723647 7.055752 -1.148169 0.260340 0.823875 -0.334167 -2.061435 -2.702507 1.117422 -0.016914 0.220436 -0.005222 3.413272 9.961405 0.366836 1.351427 2.501016 1.280766 8.222968 -6.397440 -1.273137 -0.016071 -0.229339 -0.009706
6.180375 89.146869 -18.911169 132.156170 -5.309668 0.516723 -5.120122 2.715880 0.859020 -2.901978 1.539532 0.420958 -3.626028 1.927590 0.514014 -2.901978 1.539532 0.420958 1.162857 26.672698 -2.294151 1.796535 3.522983 -2.778335 15.628230 -1.994618 -1.467242 -0.602742 -3.087221 89.067422 4.420454 7.180801 0.356416 -1.770218 -1.768972 -1.343333 12.703774 -0.492659 -1.014314 -6.651536 -5.471724 -90.553019 2.745158 12.255542 1.873169 -1.128563 -0.441865 0.329724 -5.726050 7.060898 -1.134326 0.254974 0.822135 -0.332867 -2.075328 -2.707742 1.103250 -0.016396 0.218786 -0.004815 3.409531 9.958963 0.381359 1.343753 2.490684 1.281494 8.209372 -6.388642 -1.287555 -0.015863 -0.228318 -0.007387
6.197139 89.147078 -18.902132 132.175988 -5.304363 0.515391 -5.113258 2.714267 0.852150 -2.898456 1.538414 0.416799 -3.621643 1.926156 0.508839 -2.898456 1.538414 0.416799 1.172055 26.665501 -2.281840 1.803765 3.513653 -2.766848 15.625369 -2.006272 -1.462662 -0.607539 -3.099069 89.048475 4.437305 7.183756 0.360286 -1.767488 -1.767630 -1.342719 12.702822 -0.500569 -1.008220 -6.650175 -5.471996 -90.560689 2.762993 12.245309 1.874063 -1.128795 -0.440297 0.331364 -5.729465 7.065321 -1.119490 0.251129 0.822951 -0.331503 -2.088572 -2.713070 1.087882 -0.015771 0.216991 -0.003830 3.409110 9.958028 0.398313 1.336319 2.479409 1.282034 8.188300 -6.379796 -1.302281 -0.015925 -0.227166 -0.005420
6.214020 89.147422 -18.893333 132.194126 -5.302607 0.513833 -5.106070 2.714595 0.845364 -2.894864 1.538458 0.412541 -3.617171 1.926173 0.503531 -2.894864 1.538458 0.412541 1.182396 26.656607 -2.269687 1.812277 3.502215 -2.755783 15.620156 -2.019215 -1.457976 -0.613692 -3.112467 89.031924 4.453452 7.190168 0.363154 -1.766556 -1.762784 -1.345065 12.694561 -0.509146 -1.001612 -6.647968 -5.472909 -90.567338 2.779106 12.231059 1.874753 -1.130831 -0.443524 0.334616 -5.730441 7.073289 -1.105698 0.246892 0.823706 -0.330373 -2.094517 -2.717647 1.072153 -0.015003 0.215103 -0.001836 3.415323 9.959181 0.417309 1.327945 2.471567 1.280377 8.164949 -6.372811 -1.313971 -0.015941 -0.226448 -0.005247
6.230869 89.147868 -18.884700 132.210345 -5.303922 0.512253 -5.097449 2.717180 0.839073 -2.890769 1.539746 0.408376 -3.612068 1.927746 0.498332 -2.890769 1.539746 0.408376 1.190521 26.645808 -2.257583 1.818360 3.488303 -2.744243 15.611848 -2.033942 -1.454054 -0.623385 -3.128146 89.016416 4.466658 7.196974 0.365616 -1.764275 -1.759824 -1.350545 12.686087 -0.520075 -0.996491 -6.645498 -5.472327 -90.572941 2.789375 12.223715 1.876418 -1.131528 -0.444582 0.337839 -5.723802 7.084756 -1.093817 0.239242 0.823565 -0.328452 -2.092383 -2.721431 1.057342 -0.013947 0.213279 0.000125 3.422220 9.960754 0.433789 1.319355 2.469012 1.279823 8.152788 -6.367856 -1.324112 -0.014811 -0.226072 -0.006203
6.247460 89.148342 -18.875872 132.225092 -5.306384 0.509628 -5.088366 2.720835 0.833474 -2.886444 1.541785 0.404658 -3.606676 1.930261 0.493687 -2.886445 1.541785 0.404658 1.196798 26.634519 -2.245033 1.822309 3.473706 -2.731784 15.603753 -2.050123 -1.450420 -0.637196 -3.145236 88.999961 4.479172 7.202894 0.369503 -1.762984 -1.765191 -1.357580 12.680736 -0.534737 -0.992353 -6.642951 -5.467616 -90.579729 2.794712 12.224984 1.879286 -1.130215 -0.443785 0.340025 -5.710973 7.096562 -1.081609 0.229242 0.824647 -0.326177 -2.087360 -2.725179 1.043305 -0.012905 0.211287 0.001785 3.425988 9.962214 0.448362 1.313221 2.468589 1.281108 8.150948 -6.363955 -1.335781 -0.012776 -0.225236 -0.006070
6.263489 89.148783 -18.866832 132.239274 -5.308959 0.506618 -5.080477 2.723738 0.827250 -2.882457 1.543803 0.401350 -3.601704 1.932754 0.489553 -2.882457 1.543803 0.401350 1.206893 26.624470 -2.232568 1.830471 3.460798 -2.720312 15.597983 -2.066138 -1.446026 -0.649193 -3.161413 88.982227 4.492078 7.201569 0.373264 -1.763492 -1.775765 -1.362466 12.677125 -0.549581 -0.987851 -6.639899 -5.459129 -90.587369 2.799425 12.225984 1.883064 -1.131538 -0.439922 0.339384 -5.698873 7.107099 -1.067298 0.220001 0.827524 -0.324872 -2.090491 -2.729733 1.029674 -0.012592 0.209556 0.002444 3.426413 9.963973 0.465416 1.310529 2.468359 1.282488 8.136961 -6.360724 -1.348423 -0.012047 -0.224297 -0.006219
6.278716 89.149136 -18.857600 132.252674 -5.310677 0.503815 -5.073980 2.724509 0.820693 -2.879072 1.544785 0.398667 -3.597483 1.933957 0.486205 -2.879072 1.544785 0.398667 1.222452 26.616540 -2.222105 1.845095 3.450810 -2.712323 15.595200 -2.078700 -1.441656 -0.657311 -3.175513 88.963590 4.504323 7.191044 0.376209 -1.763302 -1.783019 -1.366596 12.675835 -0.559339 -0.985698 -6.637881 -5.449793 -90.591774 2.804096 12.223901 1.887753 -1.133919 -0.431534 0.335813 -5.690027 7.116077 -1.051516 0.210790 0.830384 -0.324596 -2.100654 -2.734611 1.016569 -0.012920 0.208303 0.002075 3.424124 9.964584 0.482192 1.310161 2.468442 1.283975 8.120589 -6.357777 -1.359381 -0.012414 -0.223235 -0.007902
